What is Hi10P ?

Hi10P is the advanced version of the normal x264. This gives more quality for the same size. 
You have the ability to watch Ultra Quality movies with the new Hi10P encodes.

Hi10P needs Updated, Advanced video players. 

i recommend VLC or Media Player Classic because it's pretty easy.
But, you can select any of your choice.(if problem to play then intsall k-lite codecs pack)


 
http://en.wikipedia.org/wiki/Kyaa_Super_Kool_Hain_Hum
 
http://www.imdb.com/title/tt2027138/


Format                                   : Matroska
Format version                           : Version 2
File size                                : 2.33 GiB
Duration                                 : 2h 16mn
Overall bit rate                         : 2 449 Kbps


Video
ID                                       : 1
Format                                   : AVC
Format/Info                              : Advanced Video Codec
Format profile                           : High 10@L4.1
Format settings, CABAC                   : Yes
Format settings, ReFrames                : 4 frames
Muxing mode                              : Header stripping
Codec ID                                 : V_MPEG4/ISO/AVC
Duration                                 : 2h 16mn
Bit rate                                 : 2 000 Kbps
Width                                    : 1 280 pixels
Height                                   : 544 pixels
Display aspect ratio                     : 2.35:1
Frame rate                               : 23.976 fps
Color space                              : YUV
Chroma subsampling                       : 4:2:0
Bit depth                                : 10 bits
Stream size                              : 1.86 GiB (80%)
Source                                   : DVD9

Audio
ID                                       : 2
Format                                   : AC-3
Bit rate mode                            : Constant
Bit rate                                 : 448 Kbps
Channel(s)                               : 6 channels
Channel positions                        : Front: L C R, Side: L R, LFE
Sampling rate                            : 48.0 KHz
Bit depth                                : 16 bits
Compression mode                         : Lossy
Stream size                              : 437 MiB (18%)
Language                                 : Hindi


 
http://www.shotpix.com/images/57878633301039108269.png
 
http://www.shotpix.com/images/93547334346014773759.png
 
http://www.shotpix.com/images/61283286434585065466.png
 
http://www.shotpix.com/images/31419027728118914268.png
 
http://www.shotpix.com/images/75121037376548605050.png
 
http://www.shotpix.com/images/86287915949496405782.png
 
http://www.shotpix.com/images/19147043746952130395.png
 
http://www.shotpix.com/images/57965102958000748457.png
 
http://www.shotpix.com/images/12412439261472484514.png

                            
                                 Check the sample First